<svg width="40" height="40" viewBox="0 0 40 40" fill="none" xmlns="http://www.w3.org/2000/svg">
<g id="List &#226;&#134;&#146; Item &#226;&#134;&#146; Link &#226;&#134;&#146; SVG">
<path id="Vector" d="M20 7.70333C24.005 7.70333 24.48 7.71833 26.0617 7.79C27.5233 7.85667 28.3183 8.10167 28.8467 8.30667C29.5467 8.57833 30.0467 8.90333 30.5717 9.42833C31.0967 9.95333 31.4217 10.4533 31.6933 11.1533C31.8983 11.6817 32.1433 12.4767 32.21 13.9383C32.2817 15.52 32.2967 15.995 32.2967 20C32.2967 24.005 32.2817 24.48 32.21 26.0617C32.1433 27.5233 31.8983 28.3183 31.6933 28.8467C31.4217 29.5467 31.0967 30.0467 30.5717 30.5717C30.0467 31.0967 29.5467 31.4217 28.8467 31.6933C28.3183 31.8983 27.5233 32.1433 26.0617 32.21C24.48 32.2817 24.0067 32.2967 20 32.2967C15.9933 32.2967 15.52 32.2817 13.9383 32.21C12.4767 32.1433 11.6817 31.8983 11.1533 31.6933C10.4533 31.4217 9.95333 31.0967 9.42833 30.5717C8.90333 30.0467 8.57833 29.5467 8.30667 28.8467C8.10167 28.3183 7.85667 27.5233 7.79 26.0617C7.71833 24.48 7.70333 24.005 7.70333 20C7.70333 15.995 7.71833 15.52 7.79 13.9383C7.85667 12.4767 8.10167 11.6817 8.30667 11.1533C8.57833 10.4533 8.90333 9.95333 9.42833 9.42833C9.95333 8.90333 10.4533 8.57833 11.1533 8.30667C11.6817 8.10167 12.4767 7.85667 13.9383 7.79C15.52 7.71833 15.995 7.70333 20 7.70333ZM20 5C15.9267 5 15.415 5.01667 13.815 5.09C12.2183 5.16333 11.1283 5.41667 10.175 5.78667C9.18833 6.17 8.35167 6.68333 7.51833 7.51833C6.685 8.35167 6.17167 9.18833 5.78833 10.175C5.41667 11.1283 5.16333 12.2183 5.09 13.815C5.01667 15.415 5 15.9267 5 20C5 24.0733 5.01667 24.585 5.09 26.185C5.16333 27.7817 5.41667 28.8717 5.78667 29.8267C6.17 30.8133 6.68333 31.65 7.51667 32.4833C8.35 33.3167 9.18667 33.83 10.1733 34.2133C11.1267 34.5833 12.2183 34.8383 13.815 34.91C15.415 34.9833 15.9267 35 20 35C24.0733 35 24.585 34.9833 26.185 34.91C27.7817 34.8367 28.8717 34.5833 29.8267 34.2133C30.8133 33.83 31.65 33.3167 32.4833 32.4833C33.3167 31.65 33.83 30.8133 34.2133 29.8267C34.5833 28.8733 34.8383 27.7817 34.91 26.185C34.9833 24.585 35 24.0733 35 20C35 15.9267 34.9833 15.415 34.91 13.815C34.8367 12.2183 34.5833 11.1283 34.2133 10.1733C33.83 9.18667 33.3167 8.35 32.4833 7.51667C31.65 6.68333 30.8133 6.17 29.8267 5.78667C28.8733 5.41667 27.7817 5.16167 26.185 5.09C24.585 5.01667 24.0733 5 20 5ZM20 12.2967C15.7467 12.2967 12.2967 15.745 12.2967 20C12.2967 24.255 15.7467 27.7033 20 27.7033C24.2533 27.7033 27.7033 24.255 27.7033 20C27.7033 15.745 24.2533 12.2967 20 12.2967ZM20 25C17.2383 25 15 22.7617 15 20C15 17.2383 17.2383 15 20 15C22.7617 15 25 17.2383 25 20C25 22.7617 22.7617 25 20 25ZM28.0067 10.1933C27.0133 10.1933 26.2067 11 26.2067 11.9933C26.2067 12.9867 27.0133 13.7933 28.0067 13.7933C29 13.7933 29.8067 12.9867 29.8067 11.9933C29.8067 11 29.0017 10.1933 28.0067 10.1933Z" fill="#17191F"/>
</g>
</svg>
