<svg width="40" height="40" viewBox="0 0 40 40" fill="none" xmlns="http://www.w3.org/2000/svg">
<g id="List &#226;&#134;&#146; Item &#226;&#134;&#146; Link &#226;&#134;&#146; SVG">
<path id="Vector" d="M37.05 9.87366C35.8233 10.417 34.505 10.7853 33.1217 10.9503C34.5333 10.1037 35.6183 8.76366 36.1283 7.16699C34.8067 7.95033 33.3433 8.52033 31.785 8.82699C30.54 7.49699 28.7617 6.66699 26.795 6.66699C23.0183 6.66699 19.9567 9.72866 19.9567 13.5053C19.9567 14.042 20.0167 14.5637 20.1333 15.0637C14.45 14.7787 9.41167 12.057 6.03834 7.91866C5.45001 8.92866 5.11167 10.1037 5.11167 11.357C5.11167 13.7303 6.31834 15.822 8.15334 17.0487C7.03168 17.0137 5.97834 16.7053 5.05501 16.1937C5.05501 16.222 5.05501 16.2503 5.05501 16.2803C5.05501 19.5937 7.41167 22.3587 10.5417 22.9853C9.96834 23.142 9.36334 23.2253 8.74001 23.2253C8.30001 23.2253 7.87168 23.182 7.45334 23.102C8.32334 25.8187 10.85 27.7953 13.8417 27.852C11.5017 29.6853 8.55167 30.7787 5.34834 30.7787C4.79667 30.7787 4.25167 30.747 3.71667 30.6837C6.74334 32.6237 10.3383 33.7553 14.2 33.7553C26.7783 33.7553 33.6583 23.3353 33.6583 14.297C33.6583 14.0003 33.6517 13.7053 33.6383 13.412C34.975 12.4503 36.1333 11.2453 37.05 9.87366Z" fill="#17191F"/>
</g>
</svg>
