<svg width="40" height="40" viewBox="0 0 40 40" fill="none" xmlns="http://www.w3.org/2000/svg">
<g id="List &#226;&#134;&#146; Item &#226;&#134;&#146; Link &#226;&#134;&#146; SVG">
<path id="Vector" d="M36.3333 13.335C36.3333 13.335 36.0083 11.0383 35.0083 10.0267C33.7416 8.69832 32.32 8.69165 31.6683 8.61499C27.0033 8.27832 20.0066 8.27832 20.0066 8.27832H19.9916C19.9916 8.27832 12.995 8.27832 8.32998 8.61499C7.67998 8.69332 6.25998 8.69999 4.99165 10.0267C3.99165 11.0383 3.66665 13.335 3.66665 13.335C3.66665 13.335 3.33331 16.0333 3.33331 18.73V21.2583C3.33331 23.955 3.66665 26.6533 3.66665 26.6533C3.66665 26.6533 3.99165 28.95 4.99165 29.9617C6.25998 31.29 7.92498 31.2467 8.66665 31.3867C11.3333 31.6417 20 31.7217 20 31.7217C20 31.7217 27.005 31.7117 31.6683 31.3733C32.32 31.295 33.74 31.2883 35.0083 29.9617C36.0083 28.95 36.3333 26.6533 36.3333 26.6533C36.3333 26.6533 36.6666 23.9567 36.6666 21.2583V18.73C36.6666 16.0333 36.3333 13.335 36.3333 13.335ZM16.5583 24.3233L16.5566 14.9567L25.5633 19.6567L16.5583 24.3233Z" fill="#17191F"/>
</g>
</svg>
